<?xml version="1.0" encoding="utf-8"?>
<!-- Generator: Adobe Illustrator 21.0.1, SVG Export Plug-In . SVG Version: 6.00 Build 0)  -->
<svg version="1.1" id="Layer_1" xmlns="http://www.w3.org/2000/svg" xmlns:xlink="http://www.w3.org/1999/xlink" x="0px" y="0px"
	 viewBox="0 0 43.4 43.7" style="enable-background:new 0 0 43.4 43.7;" xml:space="preserve">
<style type="text/css">
	.st0{fill:#2DDBAD;}
</style>
<title>logo</title>
<desc>Created with Sketch.</desc>
<g id="pages">
	<g id="homepage" transform="translate(-130.000000, -44.000000)">
		<g id="hero">
			<g id="logo" transform="translate(130.000000, 44.000000)">
				<path id="Fill-1" class="st0" d="M43.4,21.5l0-0.2c0-0.1-0.1-0.2-0.3-0.2H35c-0.3,0-0.5-0.2-0.5-0.6v-2.2c0-1.2-1-2.1-2.1-2.1
					c-1.2,0-2.1,1-2.1,2.1v9.5c0,0.3-0.2,0.6-0.5,0.6c-0.3,0-0.5-0.2-0.5-0.6V12.9c0-1.2-1-2.1-2.1-2.1c-1.2,0-2.1,1-2.1,2.1v18.5
					c0,0.3-0.2,0.6-0.5,0.6c-0.3,0-0.5-0.2-0.5-0.6V5.6c0-1.2-1-2.1-2.1-2.1c-1.2,0-2.1,1-2.1,2.1v32.2c0,0.3-0.2,0.6-0.5,0.6
					s-0.5-0.2-0.5-0.6v-25c0-1.2-1-2.1-2.1-2.1c-1.2,0-2.1,1-2.1,2.1v16c0,0.3-0.2,0.6-0.5,0.6c-0.3,0-0.5-0.2-0.5-0.6V18.3
					c0-1.2-1-2.1-2.1-2.1c-1.2,0-2.1,1-2.1,2.1v2.2c0,0.3-0.2,0.6-0.5,0.6H1.6C2,10.3,11,1.6,21.7,1.6c8.5,0,16.1,5.4,19,13.5
					c0,0.1,0.1,0.2,0.2,0.2H42h0h0c0.1,0,0.3-0.1,0.3-0.3c0-0.1,0-0.1,0-0.1C39.3,6,31,0,21.7,0C9.7,0,0,9.8,0,21.9
					c0,0.1,0,0.2,0,0.4l0,0.2c0,0.1,0.1,0.2,0.3,0.2h8.1c1.2,0,2.1-1,2.1-2.1v-2.2c0-0.3,0.2-0.6,0.5-0.6c0.3,0,0.5,0.2,0.5,0.6
					v10.5c0,1.2,1,2.1,2.1,2.1c1.2,0,2.1-1,2.1-2.1v-16c0-0.3,0.2-0.5,0.5-0.5c0.3,0,0.5,0.2,0.5,0.5v25c0,1.2,1,2.1,2.1,2.1
					c1.2,0,2.1-1,2.1-2.1V5.6c0-0.3,0.2-0.6,0.5-0.6c0.3,0,0.5,0.2,0.5,0.6v25.7c0,1.2,1,2.1,2.1,2.1c1.2,0,2.1-1,2.1-2.1V12.9
					c0-0.3,0.2-0.5,0.5-0.5c0.3,0,0.5,0.2,0.5,0.5v14.9c0,1.2,1,2.1,2.1,2.1c1.2,0,2.1-1,2.1-2.1v-9.5c0-0.3,0.2-0.6,0.5-0.6
					c0.3,0,0.5,0.2,0.5,0.6v2.2c0,1.2,1,2.1,2.1,2.1h6.7c-0.4,10.8-9.4,19.5-20.1,19.5c-8.5,0-16.1-5.4-19-13.5
					c0-0.1-0.1-0.2-0.2-0.2H1.3c-0.1,0-0.2,0-0.2,0.1c0,0.1-0.1,0.2,0,0.2c3,9,11.2,15,20.6,15c12,0,21.7-9.8,21.7-21.9
					C43.4,21.7,43.4,21.6,43.4,21.5"/>
			</g>
		</g>
	</g>
</g>
</svg>
